# Blender 4.1.1
# www.blender.org
mtllib MoveObject_2.mtl
o 動く足場２
v -176.612350 0.747701 309.604492
v -176.612350 5.620872 309.604492
v -166.871735 0.747701 282.917175
v -166.871735 5.620872 282.917175
v -149.925018 0.747701 319.345093
v -149.925018 5.620872 319.345093
v -140.184402 0.747701 292.657776
v -140.184402 5.620872 292.657776
vn -0.9394 -0.0000 -0.3429
vn 0.3429 -0.0000 -0.9394
vn 0.9394 -0.0000 0.3429
vn -0.3429 -0.0000 0.9394
vn -0.0000 -1.0000 -0.0000
vn -0.0000 1.0000 -0.0000
vt 0.625000 0.000000
vt 0.375000 0.250000
vt 0.375000 0.000000
vt 0.625000 0.250000
vt 0.375000 0.500000
vt 0.625000 0.500000
vt 0.375000 0.750000
vt 0.625000 0.750000
vt 0.375000 1.000000
vt 0.125000 0.750000
vt 0.125000 0.500000
vt 0.875000 0.500000
vt 0.625000 1.000000
vt 0.875000 0.750000
s 0
usemtl MoveFloor_2
f 2/1/1 3/2/1 1/3/1
f 4/4/2 7/5/2 3/2/2
f 8/6/3 5/7/3 7/5/3
f 6/8/4 1/9/4 5/7/4
f 7/5/5 1/10/5 3/11/5
f 4/12/6 6/8/6 8/6/6
f 2/1/1 4/4/1 3/2/1
f 4/4/2 8/6/2 7/5/2
f 8/6/3 6/8/3 5/7/3
f 6/8/4 2/13/4 1/9/4
f 7/5/5 5/7/5 1/10/5
f 4/12/6 2/14/6 6/8/6
