# Blender 4.1.1
# www.blender.org
mtllib SpiralStatircase.mtl
o SpiralStaircase
v 16.074356 5.099690 59.130127
v 16.074356 8.493618 59.130127
v 16.074356 5.099689 35.928986
v 16.074356 8.493616 35.928986
v 39.275513 5.099690 59.130127
v 39.275513 8.493618 59.130127
v 39.275513 5.099689 35.928986
v 39.275513 8.493616 35.928986
v -27.847767 15.479017 51.030121
v -27.847767 18.872946 51.030121
v -9.122856 15.479016 37.330780
v -9.122856 18.872944 37.330780
v -14.148430 15.479019 69.755020
v -14.148430 18.872948 69.755020
v 4.576469 15.479017 56.055695
v 4.576469 18.872946 56.055695
v -56.521484 23.519295 44.482376
v -56.521484 26.913221 44.482372
v -56.521484 23.519293 21.281218
v -56.521484 26.913219 21.281218
v -33.320324 23.519295 44.482376
v -33.320324 26.913221 44.482372
v -33.320324 23.519293 21.281218
v -33.320324 26.913219 21.281218
v -72.190865 32.872513 -3.299654
v -72.190865 36.266438 -3.299655
v -54.746246 32.872513 -18.596010
v -54.746246 36.266438 -18.596010
v -56.894493 32.872513 14.144986
v -56.894493 36.266438 14.144986
v -39.449875 32.872513 -1.151400
v -39.449875 36.266438 -1.151400
v -50.731232 39.255245 -23.054874
v -50.731232 42.649174 -23.054874
v -50.731232 39.255241 -46.256046
v -50.731232 42.649170 -46.256046
v -27.530075 39.255245 -23.054874
v -27.530075 42.649174 -23.054874
v -27.530075 39.255241 -46.256046
v -27.530075 42.649170 -46.256046
v -22.782497 47.050423 -49.830875
v -22.782497 50.444351 -49.830875
v -10.814842 47.050423 -69.707184
v -10.814842 50.444351 -69.707184
v -2.906158 47.050423 -37.863194
v -2.906158 50.444351 -37.863194
v 9.061501 47.050423 -57.739536
v 9.061501 50.444351 -57.739536
v 16.474602 53.861343 -30.924168
v 16.474602 57.255268 -30.924168
v 16.474602 53.861343 -54.125309
v 16.474602 57.255268 -54.125309
v 39.675758 53.861343 -30.924168
v 39.675758 57.255268 -30.924168
v 39.675758 53.861343 -54.125309
v 39.675758 57.255268 -54.125309
v 43.051292 62.182323 -19.945286
v 43.051292 65.576248 -19.945288
v 58.015877 62.182320 -37.675358
v 58.015877 65.576248 -37.675358
v 60.781364 62.182323 -4.980718
v 60.781364 65.576248 -4.980718
v 75.745934 62.182323 -22.710789
v 75.745934 65.576248 -22.710791
vn -1.0000 -0.0000 -0.0000
vn -0.0000 -0.0000 -1.0000
vn 1.0000 -0.0000 -0.0000
vn -0.0000 -0.0000 1.0000
vn -0.0000 -1.0000 -0.0000
vn -0.0000 1.0000 -0.0000
vn -0.5905 -0.0000 -0.8071
vn 0.8071 -0.0000 -0.5905
vn 0.5905 -0.0000 0.8071
vn -0.8071 -0.0000 0.5905
vn -0.6593 -0.0000 -0.7519
vn 0.7519 -0.0000 -0.6593
vn 0.6593 -0.0000 0.7519
vn -0.7519 -0.0000 0.6593
vn -0.8567 -0.0000 -0.5158
vn 0.5158 -0.0000 -0.8567
vn 0.8567 -0.0000 0.5158
vn -0.5158 -0.0000 0.8567
vn -0.7642 -0.0000 -0.6450
vn 0.6450 -0.0000 -0.7642
vn 0.7642 -0.0000 0.6450
vn -0.6450 -0.0000 0.7642
vt 0.625000 0.000000
vt 0.375000 0.250000
vt 0.375000 0.000000
vt 0.625000 0.250000
vt 0.375000 0.500000
vt 0.625000 0.500000
vt 0.375000 0.750000
vt 0.625000 0.750000
vt 0.375000 1.000000
vt 0.125000 0.750000
vt 0.125000 0.500000
vt 0.875000 0.500000
vt 0.875000 0.750000
vt 0.625000 1.000000
s 0
usemtl Stairs
f 2/1/1 3/2/1 1/3/1
f 4/4/2 7/5/2 3/2/2
f 8/6/3 5/7/3 7/5/3
f 6/8/4 1/9/4 5/7/4
f 7/5/5 1/10/5 3/11/5
f 4/12/6 6/8/6 8/6/6
f 10/1/7 11/2/7 9/3/7
f 12/4/8 15/5/8 11/2/8
f 16/6/9 13/7/9 15/5/9
f 14/8/10 9/9/10 13/7/10
f 15/5/5 9/10/5 11/11/5
f 12/12/6 14/8/6 16/6/6
f 18/1/1 19/2/1 17/3/1
f 20/4/2 23/5/2 19/2/2
f 24/6/3 21/7/3 23/5/3
f 22/8/4 17/9/4 21/7/4
f 23/5/5 17/10/5 19/11/5
f 20/12/6 22/8/6 24/6/6
f 26/1/11 27/2/11 25/3/11
f 28/4/12 31/5/12 27/2/12
f 32/6/13 29/7/13 31/5/13
f 30/8/14 25/9/14 29/7/14
f 31/5/5 25/10/5 27/11/5
f 32/6/6 26/13/6 30/8/6
f 34/1/1 35/2/1 33/3/1
f 36/4/2 39/5/2 35/2/2
f 40/6/3 37/7/3 39/5/3
f 38/8/4 33/9/4 37/7/4
f 39/5/5 33/10/5 35/11/5
f 36/12/6 38/8/6 40/6/6
f 42/1/15 43/2/15 41/3/15
f 44/4/16 47/5/16 43/2/16
f 48/6/17 45/7/17 47/5/17
f 46/8/18 41/9/18 45/7/18
f 47/5/5 41/10/5 43/11/5
f 44/12/6 46/8/6 48/6/6
f 50/1/1 51/2/1 49/3/1
f 52/4/2 55/5/2 51/2/2
f 56/6/3 53/7/3 55/5/3
f 54/8/4 49/9/4 53/7/4
f 55/5/5 49/10/5 51/11/5
f 52/12/6 54/8/6 56/6/6
f 58/1/19 59/2/19 57/3/19
f 60/4/20 63/5/20 59/2/20
f 64/6/21 61/7/21 63/5/21
f 62/8/22 57/9/22 61/7/22
f 63/5/5 57/10/5 59/11/5
f 60/12/6 62/8/6 64/6/6
f 2/1/1 4/4/1 3/2/1
f 4/4/2 8/6/2 7/5/2
f 8/6/3 6/8/3 5/7/3
f 6/8/4 2/14/4 1/9/4
f 7/5/5 5/7/5 1/10/5
f 4/12/6 2/13/6 6/8/6
f 10/1/7 12/4/7 11/2/7
f 12/4/8 16/6/8 15/5/8
f 16/6/9 14/8/9 13/7/9
f 14/8/10 10/14/10 9/9/10
f 15/5/5 13/7/5 9/10/5
f 12/12/6 10/13/6 14/8/6
f 18/1/1 20/4/1 19/2/1
f 20/4/2 24/6/2 23/5/2
f 24/6/3 22/8/3 21/7/3
f 22/8/4 18/14/4 17/9/4
f 23/5/5 21/7/5 17/10/5
f 20/12/6 18/13/6 22/8/6
f 26/1/11 28/4/11 27/2/11
f 28/4/12 32/6/12 31/5/12
f 32/6/13 30/8/13 29/7/13
f 30/8/14 26/14/14 25/9/14
f 31/5/5 29/7/5 25/10/5
f 32/6/6 28/12/6 26/13/6
f 34/1/1 36/4/1 35/2/1
f 36/4/2 40/6/2 39/5/2
f 40/6/3 38/8/3 37/7/3
f 38/8/4 34/14/4 33/9/4
f 39/5/5 37/7/5 33/10/5
f 36/12/6 34/13/6 38/8/6
f 42/1/15 44/4/15 43/2/15
f 44/4/16 48/6/16 47/5/16
f 48/6/17 46/8/17 45/7/17
f 46/8/18 42/14/18 41/9/18
f 47/5/5 45/7/5 41/10/5
f 44/12/6 42/13/6 46/8/6
f 50/1/1 52/4/1 51/2/1
f 52/4/2 56/6/2 55/5/2
f 56/6/3 54/8/3 53/7/3
f 54/8/4 50/14/4 49/9/4
f 55/5/5 53/7/5 49/10/5
f 52/12/6 50/13/6 54/8/6
f 58/1/19 60/4/19 59/2/19
f 60/4/20 64/6/20 63/5/20
f 64/6/21 62/8/21 61/7/21
f 62/8/22 58/14/22 57/9/22
f 63/5/5 61/7/5 57/10/5
f 60/12/6 58/13/6 62/8/6
