# Blender 4.1.1
# www.blender.org
mtllib ButtonBase.mtl
o ButtonBase_1
v -268.949127 -0.304453 8.057232
v -268.949127 20.304293 8.057232
v -268.949127 -0.304453 -2.115116
v -268.949127 20.304293 -2.115116
v -258.776764 -0.304453 8.057232
v -258.776764 20.304293 8.057232
v -258.776764 -0.304453 -2.115116
v -258.776764 20.304293 -2.115116
vn -1.0000 -0.0000 -0.0000
vn -0.0000 -0.0000 -1.0000
vn 1.0000 -0.0000 -0.0000
vn -0.0000 -0.0000 1.0000
vn -0.0000 1.0000 -0.0000
vt 0.666640 0.000082
vt 0.000082 0.999918
vt 0.000082 0.000082
vt 0.666639 0.999918
vt 0.000082 0.000082
vt 0.666639 0.000082
vt 0.666640 0.999918
vt 0.000082 0.000082
vt 0.666640 0.000082
vt 0.000082 0.999918
vt 0.000082 0.999918
s 0
usemtl ButtonBase_1
f 2/1/1 3/2/1 1/3/1
f 4/1/2 7/2/2 3/3/2
f 8/4/3 5/5/3 7/6/3
f 6/4/4 1/5/4 5/6/4
f 2/1/1 4/7/1 3/2/1
f 4/7/5 6/8/5 8/9/5
f 4/1/2 8/7/2 7/2/2
f 8/4/3 6/10/3 5/5/3
f 6/4/4 2/10/4 1/5/4
f 4/7/5 2/11/5 6/8/5
