# Blender 4.1.1
# www.blender.org
mtllib LDoubleDoors.mtl
o LDoubleDoors
v 1.399835 20.000000 -16.000000
v 1.399835 -20.000000 -16.000000
v 1.630654 20.000000 8.172916
v 1.630654 -20.000000 8.172916
v -1.399835 20.000000 -16.000000
v -1.399835 -20.000000 -16.000000
v -1.169016 20.000000 8.172916
v -1.169016 -20.000000 8.172916
vn 1.0000 -0.0000 -0.0095
vn -0.0000 -0.0000 1.0000
vn -1.0000 -0.0000 0.0095
vn -0.0000 -0.0000 -1.0000
vn -0.0000 1.0000 -0.0000
vn -0.0000 -1.0000 -0.0000
vt 0.569644 0.999924
vt 0.000075 0.000075
vt 0.569644 0.000075
vt 0.000087 0.000087
vt 0.127493 0.999913
vt 0.000087 0.999913
vt 0.569644 0.999925
vt 0.000076 0.000075
vt 0.569644 0.000075
vt 0.000087 0.000087
vt 0.124007 0.999913
vt 0.000087 0.999914
vt 0.000072 0.796846
vt 0.660824 0.914475
vt 0.000072 0.911594
vt 0.719660 0.801101
vt 0.000072 0.914475
vt 0.000072 0.798752
vt 0.000075 0.999924
vt 0.127492 0.000087
vt 0.000075 0.999925
vt 0.124007 0.000086
vt 0.660824 0.803214
vt 0.719660 0.913918
s 0
usemtl LDoubleDoors
f 2/1/1 1/3/1 3/2/1
f 4/4/2 3/6/2 7/5/2
f 8/7/3 7/9/3 5/8/3
f 6/10/4 5/12/4 1/11/4
f 7/13/5 3/15/5 1/14/5
f 8/16/6 6/18/6 2/17/6
f 2/1/1 3/2/1 4/19/1
f 4/4/2 7/5/2 8/20/2
f 8/7/3 5/8/3 6/21/3
f 6/10/4 1/11/4 2/22/4
f 7/13/5 1/14/5 5/23/5
f 8/16/6 2/17/6 4/24/6
