# Blender 4.1.1
# www.blender.org
mtllib LeverBase.mtl
o LeverBase
v -3.000000 -1.000000 6.000000
v -3.000000 1.000000 6.000000
v -3.000000 -1.000000 -6.000000
v -3.000000 1.000000 -6.000000
v 3.000000 -1.000000 6.000000
v 3.000000 1.000000 6.000000
v 3.000000 -1.000000 -6.000000
v 3.000000 1.000000 -6.000000
vn -1.0000 -0.0000 -0.0000
vn -0.0000 -0.0000 -1.0000
vn 1.0000 -0.0000 -0.0000
vn -0.0000 -0.0000 1.0000
vn -0.0000 -1.0000 -0.0000
vn -0.0000 1.0000 -0.0000
vt 0.000082 0.999918
vt 0.327994 0.000082
vt 0.327994 0.999918
vt 0.000082 0.000082
vt 0.666640 0.415315
vt 0.000082 0.415315
vt 0.327994 0.000082
vt 0.000082 0.999918
vt 0.000082 0.000082
vt 0.666640 0.420355
vt 0.000082 0.000082
vt 0.666639 0.000082
vt 0.000082 0.000082
vt 0.999259 0.999918
vt 0.000082 0.999918
vt 0.000082 0.000082
vt 0.999259 0.000082
vt 0.000082 0.000082
vt 0.666640 0.000082
vt 0.327994 0.999918
vt 0.000082 0.420355
vt 0.999259 0.000082
vt 0.000082 0.999918
s 0
usemtl LeverBase_2
f 2/1/1 3/2/1 1/3/1
f 4/4/2 7/5/2 3/6/2
f 8/7/3 5/8/3 7/9/3
f 6/10/4 1/11/4 5/12/4
f 7/13/5 1/14/5 3/15/5
f 4/14/6 6/16/6 8/17/6
f 2/1/1 4/18/1 3/2/1
f 4/4/2 8/19/2 7/5/2
f 8/7/3 6/20/3 5/8/3
f 6/10/4 2/21/4 1/11/4
f 7/13/5 5/22/5 1/14/5
f 4/14/6 2/23/6 6/16/6
