# Blender 4.2.0
# www.blender.org
mtllib SingleDoor.mtl
o Door
v -1.060320 0.029669 1.157445
v -1.060320 56.001781 1.157445
v -1.060320 0.029669 -42.742905
v -1.060320 56.001781 -42.742905
v 0.939680 0.029669 1.157445
v 0.939680 56.001781 1.157445
v 0.939680 0.029669 -42.742905
v 0.939680 56.001781 -42.742905
vn -1.0000 -0.0000 -0.0000
vn -0.0000 -0.0000 -1.0000
vn 1.0000 -0.0000 -0.0000
vn -0.0000 -0.0000 1.0000
vn -0.0000 -1.0000 -0.0000
vn -0.0000 1.0000 -0.0000
vt 0.000087 0.000087
vt 0.749611 0.999913
vt 0.000087 0.999913
vt 0.069113 0.999913
vt 0.000087 0.000087
vt 0.749611 0.000087
vt 0.073262 0.999913
vt 0.073262 0.000087
vt 0.749611 0.999913
vt 0.000086 0.911526
vt 0.749611 0.911526
vt 0.749611 0.999913
vt 0.000087 0.917061
vt 0.749611 0.917061
vt 0.069113 0.000087
vt 0.000086 0.999914
vt 0.000087 0.999913
s 0
usemtl Door
f 2/1/1 3/2/1 1/3/1
f 4/1/2 7/4/2 3/3/2
f 8/2/3 5/5/3 7/6/3
f 6/7/4 1/5/4 5/8/4
f 7/9/5 1/10/5 3/11/5
f 4/12/6 6/13/6 8/14/6
f 2/1/1 4/6/1 3/2/1
f 4/1/2 8/15/2 7/4/2
f 8/2/3 6/3/3 5/5/3
f 6/7/4 2/3/4 1/5/4
f 7/9/5 5/16/5 1/10/5
f 4/12/6 2/17/6 6/13/6
