# Blender 4.1.1
# www.blender.org
mtllib Demo_FieldFloor.mtl
o F1_Floor
v 366.135376 0.000000 118.964600
v 366.135406 0.000000 -118.964600
v 0.000000 0.000000 384.977539
v 226.284119 0.000000 311.453369
v -366.135406 0.000000 118.964600
v -226.284119 0.000000 311.453339
v -226.284119 0.000000 -311.453369
v -366.135376 0.000000 -118.964600
v 226.284119 0.000000 -311.453339
v -0.000000 0.000000 -384.977539
v 0.000000 0.000000 0.000000
vn -0.0000 1.0000 -0.0000
vn -0.0000 -1.0000 -0.0000
vt -0.522542 0.888297
vt -0.522542 -0.710495
vt -0.515566 0.088899
vt -0.419048 0.946875
vt -0.419048 -0.651917
vt -0.412072 0.147477
vt -0.264307 0.902941
vt -0.264307 -0.695851
vt -0.257331 0.103544
vt -0.216463 0.920515
vt -0.216463 -0.678277
vt -0.209486 0.121117
vt -0.043656 0.842845
vt -0.043657 0.842937
vt -0.043657 0.842754
vt 0.475533 1.698371
vt -0.223933 1.471101
vt 0.475533 0.508369
vt -0.656227 0.876100
vt 1.174999 1.471101
vt 1.607293 0.876099
vt 1.607293 0.140637
vt 1.174999 -0.454364
vt 0.475533 -0.681634
vt -0.223933 -0.454364
vt -0.656227 0.140638
s 0
usemtl material_02
f 7/1/1 4/2/1 11/3/1
f 9/4/1 6/5/1 11/6/1
f 8/7/1 1/8/1 11/9/1
f 5/10/1 2/11/1 11/12/1
f 11/13/2 3/14/2 10/15/2
f 6/16/1 3/17/1 11/18/1
f 3/17/1 4/19/1 11/18/1
f 5/20/1 6/16/1 11/18/1
f 11/18/1 8/21/1 5/20/1
f 7/22/1 8/21/1 11/18/1
f 7/22/1 11/18/1 10/23/1
f 9/24/1 10/23/1 11/18/1
f 2/25/1 9/24/1 11/18/1
f 1/26/1 2/25/1 11/18/1
f 4/19/1 1/26/1 11/18/1
o F2_Floor
v 183.411026 154.657486 57.612789
v 112.440109 154.657486 155.140427
v -0.197515 154.657486 191.770569
v -113.293037 154.657486 154.682602
v -181.058777 154.657486 60.359997
v 182.495148 154.657486 -58.230064
v 112.440041 154.657486 -154.842026
v -0.655373 154.657486 -191.929977
v -112.377266 154.657486 -155.757736
v -182.432373 154.657486 -59.603661
v 365.049316 154.657486 118.609863
v 365.049316 154.657486 -118.609863
v 0.000000 154.657486 383.834991
v 225.612701 154.657486 310.528931
v -365.049316 154.657486 118.609863
v -225.612701 154.657486 310.528931
v -225.612701 154.657486 -310.528931
v -365.049316 154.657486 -118.609863
v 225.612701 154.657486 -310.528931
v 0.000000 154.657486 -383.834991
v 183.411026 148.508926 57.612789
v 112.440109 148.508926 155.140427
v -0.197515 148.508926 191.770569
v -113.293037 148.508926 154.682602
v -181.058777 148.508926 60.359997
v 182.495148 148.508926 -58.230064
v 112.440041 148.508926 -154.842026
v -0.655373 148.508926 -191.929977
v -112.377266 148.508926 -155.757736
v -182.432373 148.508926 -59.603661
v 365.049316 148.508926 118.609863
v 365.049316 148.508926 -118.609863
v 0.000000 148.508926 383.834991
v 225.612701 148.508926 310.528931
v -365.049316 148.508926 118.609863
v -225.612701 148.508926 310.528931
v -225.612701 148.508926 -310.528931
v -365.049316 148.508926 -118.609863
v 225.612701 148.508926 -310.528931
v 0.000000 148.508926 -383.834991
v 49.467300 154.657486 -343.486511
v 25.141066 154.657486 -208.316116
v 100.440353 154.657486 -180.697678
v 186.422241 154.657486 -297.164062
v 49.467293 148.508926 -343.486511
v 25.141071 148.508926 -208.316101
v 100.440353 148.508926 -180.697693
v 186.422241 148.508926 -297.164062
v -200.151779 148.508926 310.733551
v -23.708139 148.508926 368.670319
v -24.419395 148.508926 321.253754
v -172.887299 148.508926 272.089111
v -200.151749 154.657486 310.733582
v -23.708130 154.657486 368.670288
v -24.419390 154.657486 321.253784
v -172.887283 154.657486 272.089111
v 310.113403 154.657486 -65.311905
v 310.113373 148.508926 -65.311882
v 306.634888 148.508926 72.067924
v 348.477356 148.508926 85.931396
v 349.737640 148.508926 -82.698799
v 306.634888 154.657486 72.067932
v 348.477356 154.657486 85.931381
v 349.737671 154.657486 -82.698830
vn -0.0000 -1.0000 -0.0000
vn -0.0000 1.0000 -0.0000
vn -0.9999 -0.0000 0.0150
vn 0.9842 -0.0000 0.1771
vn 0.3443 -0.0000 -0.9388
vn -0.8045 -0.0000 -0.5939
vn -0.3204 -0.0000 0.9473
vn 0.8171 -0.0000 0.5765
vn -0.3144 -0.0000 0.9493
vn 0.3120 -0.0000 -0.9501
vn 0.3444 -0.0000 -0.9388
vn -1.0000 -0.0000 -0.0075
vn 0.4018 -0.0000 0.9157
vn 0.9997 -0.0000 0.0253
vn 0.3145 -0.0000 -0.9493
vt 1.327631 0.222898
vt 1.001284 -0.228860
vt 1.353335 0.091928
vt -0.501134 1.649745
vt -0.928238 1.054886
vt -0.379358 0.774151
vt 2.184829 1.055388
vt 1.327111 0.781685
vt 1.531933 -0.954018
vt 0.478512 -0.399319
vt 0.475527 -1.297262
vt -0.377387 0.778232
vt -0.580868 1.954018
vt -1.233764 1.055388
vt -0.580882 -0.954008
vt 0.475755 -0.396023
vt -0.055521 -0.222851
vt -0.580868 1.954019
vt 0.474489 1.397154
vt 0.475538 2.297263
vt -1.233764 -0.055387
vt -1.233764 1.055389
vt -0.316127 1.784160
vt -0.051515 1.226996
vt 0.478980 1.397766
vt -0.051504 -0.227882
vt -0.580882 -0.954008
vt -0.519465 -0.600913
vt -0.621714 -0.775831
vt 0.592372 -0.460942
vt 0.953628 -0.358323
vt 1.006250 -0.225253
vt 1.531947 1.954008
vt 0.475538 2.297263
vt 1.330654 0.776309
vt 2.184830 -0.055388
vt 2.184830 1.055388
vt -1.233764 -0.055388
vt 1.329913 0.219257
vt 1.531934 -0.954018
vt 1.011755 1.223034
vt 1.830037 1.106092
vt 1.438760 1.616931
vt 1.531947 1.954008
vt -0.628941 1.831323
vt 0.129683 0.999964
vt 0.000036 0.000037
vt 0.129683 0.000036
vt 1.233497 -0.937318
vt 0.475528 -1.297262
vt 1.608274 -0.665028
vt 2.184829 -0.055388
vt 1.999588 -0.112621
vt 0.044788 0.999979
vt 0.000021 0.000021
vt 0.044788 0.000021
vt 0.076685 0.999972
vt 0.000028 0.000028
vt 0.076685 0.000028
vt 0.042491 0.000021
vt 0.000021 0.999979
vt 0.000021 0.000021
vt 0.042547 0.999979
vt 0.000021 0.000021
vt 0.042547 0.000021
vt -0.449322 1.961823
vt 1.144103 -0.219935
vt -0.053011 1.225909
vt -1.137878 1.126238
vt -0.376467 0.230338
vt 0.381602 2.006535
vt 0.378525 2.227963
vt 0.587203 -1.138773
vt 0.995283 1.226967
vt -0.377816 0.213456
vt 0.000036 0.000037
vt 0.130033 0.000036
vt 0.130033 0.999964
vt 0.000020 0.000020
vt 0.039332 0.000020
vt 0.039332 0.999980
vt 0.000018 0.999982
vt 0.000018 0.000018
vt 0.033125 0.000018
vt 0.000036 0.999963
vt 0.033125 0.999982
vt 0.000020 0.999980
vt 0.000036 0.999964
vt 0.000021 0.999979
vt 0.000028 0.999972
vt 0.042491 0.999979
vt 0.000021 0.999979
vt 0.000019 0.999981
vt 0.036479 0.000019
vt 0.036479 0.999981
vt 0.094213 0.662806
vt 0.047946 0.337194
vt 0.094213 0.337194
vt 1.559109 1.784608
vt 2.027992 1.149283
vt 0.000021 0.000021
vt 0.044761 0.999979
vt 0.000021 0.999979
vt -1.081049 -0.133569
vt -0.884389 -0.070926
vt 0.093152 0.667581
vt 0.046401 0.332419
vt 0.093152 0.332419
vt 0.000019 0.000019
vt 0.047946 0.662806
vt 0.044761 0.000021
vt 0.046401 0.667581
s 0
usemtl material_01
f 38/27/3 39/28/3 58/29/3
f 62/30/3 63/31/3 35/32/3
f 38/27/3 43/33/3 37/34/3
f 51/35/3 40/36/3 48/37/3
f 13/38/4 24/39/4 25/40/4
f 23/41/4 18/42/4 17/43/4
f 44/44/3 33/45/3 45/46/3
f 46/47/3 35/32/3 47/48/3
f 66/49/4 14/50/4 15/51/4
f 48/37/3 41/52/3 49/53/3
f 23/41/4 68/54/4 75/55/4
f 54/56/4 53/57/4 19/58/4
f 15/51/4 26/59/4 27/60/4
f 21/61/4 28/62/4 29/63/4
f 22/64/4 13/38/4 25/40/4
f 20/65/4 31/66/4 28/62/4
f 32/67/3 69/68/3 70/69/3
f 33/45/3 42/70/3 45/46/3
f 47/48/3 61/71/3 44/44/3
f 61/72/5 66/73/5 62/74/5
f 52/75/4 30/76/4 31/66/4
f 56/77/3 50/78/3 59/79/3
f 53/80/6 56/81/6 52/82/6
f 54/83/7 57/84/7 53/85/7
f 59/86/8 54/87/8 55/88/8
f 52/89/9 59/90/9 55/91/9
f 65/92/4 27/60/4 24/39/4
f 59/79/3 50/78/3 38/27/3
f 39/28/3 51/35/3 57/93/3
f 51/35/3 56/77/3 57/93/3
f 58/29/3 59/79/3 38/27/3
f 39/28/3 57/93/3 58/29/3
f 34/94/3 44/44/3 62/30/3
f 44/44/3 61/71/3 62/30/3
f 60/95/3 47/48/3 63/31/3
f 47/48/3 35/32/3 63/31/3
f 34/94/3 62/30/3 35/32/3
f 38/27/3 50/78/3 43/33/3
f 51/35/3 39/28/3 40/36/3
f 13/38/4 14/50/4 24/39/4
f 23/41/4 30/76/4 18/42/4
f 44/44/3 34/94/3 33/45/3
f 46/47/3 36/96/3 35/32/3
f 15/51/4 27/60/4 67/97/4
f 27/60/4 64/98/4 67/97/4
f 65/92/4 24/39/4 66/49/4
f 24/39/4 14/50/4 66/49/4
f 15/51/4 67/97/4 66/49/4
f 48/37/3 40/36/3 41/52/3
f 17/43/4 68/54/4 23/41/4
f 18/42/4 30/76/4 55/99/4
f 18/42/4 55/99/4 54/56/4
f 52/75/4 31/66/4 53/57/4
f 31/66/4 19/58/4 53/57/4
f 18/42/4 54/56/4 19/58/4
f 15/51/4 16/100/4 26/59/4
f 21/61/4 20/65/4 28/62/4
f 22/64/4 12/101/4 13/38/4
f 20/65/4 19/58/4 31/66/4
f 37/34/3 69/68/3 32/67/3
f 33/45/3 32/67/3 42/70/3
f 47/48/3 60/95/3 61/71/3
f 63/102/10 67/103/10 64/104/10
f 62/105/11 66/106/11 67/107/11
f 61/108/12 60/109/12 64/110/12
f 61/72/5 65/111/5 66/73/5
f 61/108/12 64/110/12 65/112/12
f 62/105/11 67/107/11 63/113/11
f 63/102/10 64/104/10 60/114/10
f 52/75/4 55/99/4 30/76/4
f 56/77/3 51/35/3 50/78/3
f 53/80/6 57/115/6 56/81/6
f 54/83/13 58/116/13 57/84/13
f 59/86/8 58/117/8 54/87/8
f 52/89/9 56/118/9 59/90/9
f 65/92/4 64/98/4 27/60/4
f 72/119/14 74/120/14 75/121/14
f 72/122/15 68/123/15 69/124/15
f 71/125/3 42/70/3 70/69/3
f 43/33/3 72/126/3 69/68/3
f 69/127/16 73/128/16 70/129/16
f 74/130/4 22/64/4 75/55/4
f 12/101/4 73/131/4 68/54/4
f 70/132/17 74/133/17 71/134/17
f 17/43/4 12/101/4 68/54/4
f 37/34/3 43/33/3 69/68/3
f 72/119/14 71/135/14 74/120/14
f 72/122/15 75/136/15 68/123/15
f 71/125/3 72/126/3 43/33/3
f 42/70/3 32/67/3 70/69/3
f 71/125/3 43/33/3 42/70/3
f 69/127/16 68/137/16 73/128/16
f 74/130/4 73/131/4 12/101/4
f 22/64/4 23/41/4 75/55/4
f 74/130/4 12/101/4 22/64/4
f 70/132/17 73/138/17 74/133/17
