# Blender 4.1.1
# www.blender.org
mtllib Demo_FieldFloor.mtl
o F1_Floor
v 366.135376 0.000000 118.964600
v 366.135406 0.000000 -118.964600
v 0.000000 0.000000 384.977539
v 226.284119 0.000000 311.453369
v -366.135406 0.000000 118.964600
v -226.284119 0.000000 311.453339
v -226.284119 0.000000 -311.453369
v -366.135376 0.000000 -118.964600
v 226.284119 0.000000 -311.453339
v -0.000000 0.000000 -384.977539
v 0.000000 0.000000 0.000000
vn -0.0000 1.0000 -0.0000
vn -0.0000 -1.0000 -0.0000
vt -0.522542 0.888297
vt -0.522542 -0.710495
vt -0.515566 0.088899
vt -0.419048 0.946875
vt -0.419048 -0.651917
vt -0.412072 0.147477
vt -0.264307 0.902941
vt -0.264307 -0.695851
vt -0.257331 0.103544
vt -0.216463 0.920515
vt -0.216463 -0.678277
vt -0.209486 0.121117
vt -0.043656 0.842845
vt -0.043657 0.842937
vt -0.043657 0.842754
vt 0.475533 1.698371
vt -0.223933 1.471101
vt 0.475533 0.508369
vt -0.656227 0.876100
vt 1.174999 1.471101
vt 1.607293 0.876099
vt 1.607293 0.140637
vt 1.174999 -0.454364
vt 0.475533 -0.681634
vt -0.223933 -0.454364
vt -0.656227 0.140638
s 0
usemtl material_02
f 7/1/1 4/2/1 11/3/1
f 9/4/1 6/5/1 11/6/1
f 8/7/1 1/8/1 11/9/1
f 5/10/1 2/11/1 11/12/1
f 11/13/2 3/14/2 10/15/2
f 6/16/1 3/17/1 11/18/1
f 3/17/1 4/19/1 11/18/1
f 5/20/1 6/16/1 11/18/1
f 11/18/1 8/21/1 5/20/1
f 7/22/1 8/21/1 11/18/1
f 7/22/1 11/18/1 10/23/1
f 9/24/1 10/23/1 11/18/1
f 2/25/1 9/24/1 11/18/1
f 1/26/1 2/25/1 11/18/1
f 4/19/1 1/26/1 11/18/1
o F2_Floor
v 183.411026 154.657486 57.612789
v 112.440109 154.657486 155.140427
v -0.197515 154.657486 191.770569
v -113.293037 154.657486 154.682602
v -181.058777 154.657486 60.359997
v 182.495148 154.657486 -58.230064
v 112.440041 154.657486 -154.842026
v -0.655373 154.657486 -191.929977
v -112.377266 154.657486 -155.757736
v -182.432373 154.657486 -59.603661
v 365.049316 154.657486 118.609863
v 365.049316 154.657486 -118.609863
v 0.000000 154.657486 383.834991
v 225.612701 154.657486 310.528931
v -365.049316 154.657486 118.609863
v -225.612701 154.657486 310.528931
v -225.612701 154.657486 -310.528931
v -365.049316 154.657486 -118.609863
v 225.612701 154.657486 -310.528931
v 0.000000 154.657486 -383.834991
v 49.467300 154.657486 -343.486511
v 25.141066 154.657486 -208.316116
v 100.440353 154.657486 -180.697678
v 186.422241 154.657486 -297.164062
v -200.151749 154.657486 310.733582
v -23.708130 154.657486 368.670288
v -24.419390 154.657486 321.253784
v -172.887283 154.657486 272.089111
v 310.113403 154.657486 -65.311905
v 306.634888 154.657486 72.067932
v 348.477356 154.657486 85.931381
v 349.737671 154.657486 -82.698830
vn -0.0000 1.0000 -0.0000
vt -0.377387 0.778232
vt -0.580868 1.954018
vt -1.233764 1.055388
vt -0.580882 -0.954008
vt 0.475755 -0.396023
vt -0.055521 -0.222851
vt -0.316127 1.784160
vt -0.051515 1.226996
vt 0.478980 1.397766
vt -0.519465 -0.600913
vt -0.621714 -0.775831
vt 0.592372 -0.460942
vt 0.953628 -0.358323
vt 1.006250 -0.225253
vt 1.531947 1.954008
vt 0.475538 2.297263
vt 1.330654 0.776309
vt 2.184830 -0.055388
vt 2.184830 1.055388
vt -1.233764 -0.055388
vt 1.329913 0.219257
vt 1.531934 -0.954018
vt 1.233497 -0.937318
vt 0.475528 -1.297262
vt -0.449322 1.961823
vt 0.381602 2.006535
vt 0.378525 2.227963
vt 0.587203 -1.138773
vt 0.995283 1.226967
vt -0.377816 0.213456
vt -1.081049 -0.133569
vt -0.884389 -0.070926
s 0
usemtl material_01
f 13/27/3 24/28/3 25/29/3
f 23/30/3 18/31/3 17/32/3
f 38/33/3 14/34/3 15/35/3
f 23/30/3 40/36/3 43/37/3
f 34/38/3 33/39/3 19/40/3
f 15/35/3 26/41/3 27/42/3
f 21/43/3 28/44/3 29/45/3
f 22/46/3 13/27/3 25/29/3
f 20/47/3 31/48/3 28/44/3
f 32/49/3 30/50/3 31/48/3
f 37/51/3 27/42/3 24/28/3
f 13/27/3 14/34/3 24/28/3
f 23/30/3 30/50/3 18/31/3
f 15/35/3 27/42/3 39/52/3
f 27/42/3 36/53/3 39/52/3
f 37/51/3 24/28/3 38/33/3
f 24/28/3 14/34/3 38/33/3
f 15/35/3 39/52/3 38/33/3
f 17/32/3 40/36/3 23/30/3
f 18/31/3 30/50/3 35/54/3
f 18/31/3 35/54/3 34/38/3
f 32/49/3 31/48/3 33/39/3
f 31/48/3 19/40/3 33/39/3
f 18/31/3 34/38/3 19/40/3
f 15/35/3 16/55/3 26/41/3
f 21/43/3 20/47/3 28/44/3
f 22/46/3 12/56/3 13/27/3
f 20/47/3 19/40/3 31/48/3
f 32/49/3 35/54/3 30/50/3
f 37/51/3 36/53/3 27/42/3
f 42/57/3 22/46/3 43/37/3
f 12/56/3 41/58/3 40/36/3
f 17/32/3 12/56/3 40/36/3
f 42/57/3 41/58/3 12/56/3
f 22/46/3 23/30/3 43/37/3
f 42/57/3 12/56/3 22/46/3
o SpiralStaircase
v 100.831902 8.543996 -212.328369
v 100.831902 8.543996 -235.529510
v 124.033058 8.543996 -212.328369
v 124.033058 8.543996 -235.529510
v 56.909779 18.923325 -220.428375
v 75.634689 18.923325 -234.127716
v 70.609116 18.923325 -201.703476
v 89.334015 18.923325 -215.402802
v 28.236061 26.963600 -226.976120
v 28.236061 26.963600 -250.177277
v 51.437222 26.963600 -226.976120
v 51.437222 26.963600 -250.177277
v 12.566681 36.316818 -274.758148
v 30.011299 36.316818 -290.054504
v 27.863052 36.316818 -257.313507
v 45.307671 36.316818 -272.609894
v 34.026314 42.699554 -294.513367
v 34.026314 42.699554 -317.714539
v 57.227470 42.699554 -294.513367
v 57.227470 42.699554 -317.714539
v 61.975048 50.494736 -321.289368
v 73.942703 50.494736 -341.165680
v 81.851387 50.494736 -309.321686
v 93.819046 50.494736 -329.198029
v 101.232147 57.305653 -302.382660
v 101.232147 57.305653 -325.583801
v 124.433304 57.305653 -302.382660
v 124.433304 57.305653 -325.583801
v 127.808838 65.626633 -291.403778
v 142.773422 65.626633 -309.133850
v 145.538910 65.626633 -276.439209
v 160.503479 65.626633 -294.169281
vn -0.0000 1.0000 -0.0000
vt 0.875000 0.500000
vt 0.625000 0.750000
vt 0.625000 0.500000
vt 0.875000 0.750000
s 0
usemtl Staircase
f 45/59/4 46/60/4 47/61/4
f 49/59/4 50/60/4 51/61/4
f 53/59/4 54/60/4 55/61/4
f 59/61/4 56/62/4 58/60/4
f 61/59/4 62/60/4 63/61/4
f 65/59/4 66/60/4 67/61/4
f 69/59/4 70/60/4 71/61/4
f 73/59/4 74/60/4 75/61/4
f 45/59/4 44/62/4 46/60/4
f 49/59/4 48/62/4 50/60/4
f 53/59/4 52/62/4 54/60/4
f 59/61/4 57/59/4 56/62/4
f 61/59/4 60/62/4 62/60/4
f 65/59/4 64/62/4 66/60/4
f 69/59/4 68/62/4 70/60/4
f 73/59/4 72/62/4 74/60/4
