# Blender 4.1.1
# www.blender.org
mtllib field0Col.mtl
o Cube
v -200.000000 1.000015 200.000000
v -200.000000 0.999985 -200.000000
v 200.000000 1.000015 200.000000
v 200.000000 0.999985 -200.000000
vn -0.0000 1.0000 -0.0000
s 0
usemtl Material.003
f 2//1 3//1 4//1
f 2//1 1//1 3//1
o Cube.023_Cube.024
v 101.112740 0.939684 168.454895
v 101.112740 40.939682 168.454895
v 101.112740 0.939678 88.454895
v 101.112740 40.939678 88.454895
v 111.112740 0.939684 168.454895
v 111.112740 40.939682 168.454895
v 111.112740 0.939678 88.454895
v 111.112740 40.939678 88.454895
v 8.931398 0.939672 38.504265
v 8.931398 40.939671 38.504261
v 8.931398 0.939666 -39.268982
v 8.931398 40.939663 -39.268986
v 18.931398 0.939672 38.504265
v 18.931398 40.939671 38.504261
v 18.931398 0.939666 -39.268982
v 18.931398 40.939663 -39.268986
v 8.697754 0.939668 -39.493118
v 8.697754 40.939667 -39.493122
v -59.056862 0.939664 -39.493118
v -59.056862 40.939663 -39.493122
v 8.697754 0.939667 -49.493118
v 8.697754 40.939667 -49.493122
v -59.056862 0.939663 -49.493118
v -59.056862 40.939663 -49.493122
v 59.199341 0.939675 48.822189
v 59.199341 40.939674 48.822186
v -20.800674 0.939671 48.822189
v -20.800674 40.939671 48.822186
v 59.199341 0.939674 38.822189
v 59.199341 40.939674 38.822186
v -20.800674 0.939670 38.822189
v -20.800674 40.939671 38.822186
v 59.119408 0.939674 39.037506
v 59.119408 40.939674 39.037502
v 59.119408 0.939669 -24.325932
v 59.119408 40.939671 -24.325935
v 69.119408 0.939674 39.037506
v 69.119408 40.939674 39.037502
v 69.119408 0.939669 -24.325932
v 69.119408 40.939671 -24.325935
v -69.140640 0.939668 7.492897
v -69.140640 40.939667 7.492894
v -69.140640 0.939662 -72.507103
v -69.140640 40.939663 -72.507103
v -59.140640 0.939668 7.492897
v -59.140640 40.939667 7.492894
v -59.140640 0.939662 -72.507103
v -59.140640 40.939663 -72.507103
v -69.140640 0.939674 87.596207
v -69.140640 40.939674 87.596207
v -69.140640 0.939668 7.596207
v -69.140640 40.939667 7.596204
v -59.140640 0.939674 87.596207
v -59.140640 40.939674 87.596207
v -59.140640 0.939668 7.596207
v -59.140640 40.939667 7.596204
v 20.873930 0.939678 87.589867
v 20.873930 40.939678 87.589867
v -59.126083 0.939674 87.589867
v -59.126083 40.939674 87.589867
v 20.873930 0.939677 77.589867
v 20.873930 40.939678 77.589867
v -59.126083 0.939673 77.589867
v -59.126083 40.939674 77.589867
v 59.119408 0.939680 118.989120
v 59.119408 40.939678 118.989120
v 59.119408 0.939674 38.989120
v 59.119408 40.939674 38.989117
v 69.119408 0.939680 118.989120
v 69.119408 40.939678 118.989120
v 69.119408 0.939674 38.989120
v 69.119408 40.939674 38.989117
v 101.092850 0.939681 129.063416
v 101.092850 40.939686 129.063416
v 21.092850 0.939678 129.063416
v 21.092850 40.939678 129.063416
v 101.092850 0.939681 119.063408
v 101.092850 40.939682 119.063408
v 21.092850 0.939678 119.063416
v 21.092850 40.939674 119.063416
v -39.597588 0.939679 157.131577
v -39.597588 40.939678 157.131577
v -119.714020 0.939676 157.131577
v -119.714020 40.939678 157.131577
v -39.597588 0.939678 147.131577
v -39.597588 40.939678 147.131577
v -119.714020 0.939675 147.131577
v -119.714020 40.939678 147.131577
v -129.713440 0.939674 147.111877
v -129.713440 40.939674 147.111877
v -129.713440 0.939668 67.111885
v -129.713440 40.939667 67.111885
v -119.713440 0.939674 147.111877
v -119.713440 40.939674 147.111877
v -119.713440 0.939668 67.111885
v -119.713440 40.939667 67.111885
v 8.943756 0.939666 -39.615753
v 8.943756 40.939663 -39.615757
v 8.943756 0.939660 -119.615753
v 8.943756 40.939659 -119.615753
v 18.943756 0.939666 -39.615753
v 18.943756 40.939663 -39.615757
v 18.943756 0.939660 -119.615753
v 18.943756 40.939659 -119.615753
v 59.199341 0.939663 -119.650688
v 59.199341 40.939663 -119.650688
v -20.800674 0.939659 -119.650688
v -20.800674 40.939659 -119.650688
v 59.199341 0.939662 -129.650696
v 59.199341 40.939659 -129.650696
v -20.800674 0.939658 -129.650696
v -20.800674 40.939655 -129.650696
v -149.738663 0.939665 28.519440
v -149.738663 40.939667 28.519436
v -149.738663 0.939659 -51.480553
v -149.738663 40.939659 -51.480556
v -139.738663 0.939665 28.519440
v -139.738663 40.939667 28.519436
v -139.738663 0.939659 -51.480553
v -139.738663 40.939659 -51.480556
v -199.830460 0.939673 157.131577
v -199.830460 40.939674 157.131577
v -199.830460 0.939672 147.131577
v -199.830460 40.939674 147.131577
v 128.966629 0.939671 -9.623032
v 128.966629 40.939674 -9.623034
v 128.966629 0.939665 -89.623032
v 128.966629 40.939667 -89.623032
v 138.966629 0.939671 -9.623032
v 138.966629 40.939674 -9.623034
v 138.966629 0.939665 -89.623032
v 138.966629 40.939667 -89.623032
v 128.897583 0.939673 -24.260818
v 128.897583 40.939674 -24.260822
v 59.119461 0.939669 -24.260818
v 59.119461 40.939671 -24.260822
v 128.897583 0.939672 -34.260818
v 128.897583 40.939671 -34.260822
v 59.119461 0.939668 -34.260818
v 59.119461 40.939667 -34.260822
v -149.738663 0.939659 -51.525497
v -149.738663 40.939659 -51.525501
v -149.738663 0.939653 -131.525497
v -149.738663 40.939651 -131.525497
v -139.738663 0.939659 -51.525497
v -139.738663 40.939659 -51.525501
v -139.738663 0.939653 -131.525497
v -139.738663 40.939651 -131.525497
v -69.280190 0.939664 -39.493118
v -69.280190 40.939663 -39.493122
v -139.675873 0.939658 -39.493118
v -139.675873 40.939659 -39.493122
v -69.280190 0.939663 -49.493118
v -69.280190 40.939663 -49.493122
v -139.675873 0.939657 -49.493118
v -139.675873 40.939659 -49.493122
v -87.880920 0.939658 -118.431732
v -87.880920 40.939659 -118.431732
v -87.880920 0.939652 -198.431747
v -87.880920 40.939651 -198.431747
v -77.880920 0.939658 -118.431732
v -77.880920 40.939659 -118.431732
v -77.880920 0.939652 -198.431747
v -77.880920 40.939651 -198.431747
v 154.386795 0.939663 -119.268814
v 154.386795 40.939667 -119.268814
v 154.386795 0.939657 -199.268814
v 154.386795 40.939659 -199.268814
v 164.386795 0.939663 -119.268814
v 164.386795 40.939667 -119.268814
v 164.386795 0.939657 -199.268814
v 164.386795 40.939659 -199.268814
v 200.101898 0.939680 50.945602
v 200.101898 40.939682 50.945599
v 120.101898 0.939676 50.945602
v 120.101898 40.939678 50.945599
v 200.101898 0.939679 40.945602
v 200.101898 40.939682 40.945599
v 120.101898 0.939675 40.945602
v 120.101898 40.939678 40.945599
v 101.092850 0.939685 168.391251
v 101.092850 40.939686 168.391251
v 21.092850 0.939682 168.391251
v 21.092850 40.939678 168.391251
v 101.092850 0.939684 158.391251
v 101.092850 40.939686 158.391251
v 21.092850 0.939681 158.391251
v 21.092850 40.939678 158.391251
vn -1.0000 -0.0000 -0.0000
vn -0.0000 -0.0000 -1.0000
vn 1.0000 -0.0000 -0.0000
vn -0.0000 -0.0000 1.0000
vn -0.0000 1.0000 -0.0000
s 0
usemtl Material.002
f 6//2 7//2 5//2
f 8//3 11//3 7//3
f 12//4 9//4 11//4
f 10//5 5//5 9//5
f 8//6 10//6 12//6
f 14//2 15//2 13//2
f 16//3 19//3 15//3
f 20//4 17//4 19//4
f 18//5 13//5 17//5
f 16//6 18//6 20//6
f 22//5 23//5 21//5
f 24//2 27//2 23//2
f 28//3 25//3 27//3
f 26//4 21//4 25//4
f 24//6 26//6 28//6
f 30//5 31//5 29//5
f 32//2 35//2 31//2
f 36//3 33//3 35//3
f 34//4 29//4 33//4
f 32//6 34//6 36//6
f 38//2 39//2 37//2
f 40//3 43//3 39//3
f 44//4 41//4 43//4
f 42//5 37//5 41//5
f 40//6 42//6 44//6
f 46//2 47//2 45//2
f 48//3 51//3 47//3
f 52//4 49//4 51//4
f 50//5 45//5 49//5
f 48//6 50//6 52//6
f 54//2 55//2 53//2
f 56//3 59//3 55//3
f 60//4 57//4 59//4
f 58//5 53//5 57//5
f 56//6 58//6 60//6
f 62//5 63//5 61//5
f 64//2 67//2 63//2
f 68//3 65//3 67//3
f 66//4 61//4 65//4
f 64//6 66//6 68//6
f 70//2 71//2 69//2
f 72//3 75//3 71//3
f 76//4 73//4 75//4
f 74//5 69//5 73//5
f 72//6 74//6 76//6
f 78//5 79//5 77//5
f 80//2 83//2 79//2
f 84//3 81//3 83//3
f 82//4 77//4 81//4
f 80//6 82//6 84//6
f 86//5 87//5 85//5
f 88//2 91//2 87//2
f 92//3 89//3 91//3
f 90//4 85//4 89//4
f 88//6 90//6 92//6
f 94//2 95//2 93//2
f 96//3 99//3 95//3
f 100//4 97//4 99//4
f 98//5 93//5 97//5
f 96//6 98//6 100//6
f 102//2 103//2 101//2
f 104//3 107//3 103//3
f 108//4 105//4 107//4
f 106//5 101//5 105//5
f 104//6 106//6 108//6
f 110//5 111//5 109//5
f 112//2 115//2 111//2
f 116//3 113//3 115//3
f 114//4 109//4 113//4
f 112//6 114//6 116//6
f 118//2 119//2 117//2
f 120//3 123//3 119//3
f 124//4 121//4 123//4
f 122//5 117//5 121//5
f 120//6 122//6 124//6
f 88//5 125//5 87//5
f 126//2 127//2 125//2
f 128//3 91//3 127//3
f 92//4 87//4 91//4
f 126//6 92//6 128//6
f 130//2 131//2 129//2
f 132//3 135//3 131//3
f 136//4 133//4 135//4
f 134//5 129//5 133//5
f 132//6 134//6 136//6
f 138//5 139//5 137//5
f 140//2 143//2 139//2
f 144//3 141//3 143//3
f 142//4 137//4 141//4
f 140//6 142//6 144//6
f 146//2 147//2 145//2
f 148//3 151//3 147//3
f 152//4 149//4 151//4
f 150//5 145//5 149//5
f 148//6 150//6 152//6
f 154//5 155//5 153//5
f 156//2 159//2 155//2
f 160//3 157//3 159//3
f 158//4 153//4 157//4
f 156//6 158//6 160//6
f 162//2 163//2 161//2
f 164//3 167//3 163//3
f 168//4 165//4 167//4
f 166//5 161//5 165//5
f 164//6 166//6 168//6
f 170//2 171//2 169//2
f 172//3 175//3 171//3
f 176//4 173//4 175//4
f 174//5 169//5 173//5
f 172//6 174//6 176//6
f 178//5 179//5 177//5
f 180//2 183//2 179//2
f 184//3 181//3 183//3
f 182//4 177//4 181//4
f 180//6 182//6 184//6
f 186//5 187//5 185//5
f 188//2 191//2 187//2
f 192//3 189//3 191//3
f 190//4 185//4 189//4
f 188//6 190//6 192//6
f 6//2 8//2 7//2
f 8//3 12//3 11//3
f 12//4 10//4 9//4
f 10//5 6//5 5//5
f 8//6 6//6 10//6
f 14//2 16//2 15//2
f 16//3 20//3 19//3
f 20//4 18//4 17//4
f 18//5 14//5 13//5
f 16//6 14//6 18//6
f 22//5 24//5 23//5
f 24//2 28//2 27//2
f 28//3 26//3 25//3
f 26//4 22//4 21//4
f 24//6 22//6 26//6
f 30//5 32//5 31//5
f 32//2 36//2 35//2
f 36//3 34//3 33//3
f 34//4 30//4 29//4
f 32//6 30//6 34//6
f 38//2 40//2 39//2
f 40//3 44//3 43//3
f 44//4 42//4 41//4
f 42//5 38//5 37//5
f 40//6 38//6 42//6
f 46//2 48//2 47//2
f 48//3 52//3 51//3
f 52//4 50//4 49//4
f 50//5 46//5 45//5
f 48//6 46//6 50//6
f 54//2 56//2 55//2
f 56//3 60//3 59//3
f 60//4 58//4 57//4
f 58//5 54//5 53//5
f 56//6 54//6 58//6
f 62//5 64//5 63//5
f 64//2 68//2 67//2
f 68//3 66//3 65//3
f 66//4 62//4 61//4
f 64//6 62//6 66//6
f 70//2 72//2 71//2
f 72//3 76//3 75//3
f 76//4 74//4 73//4
f 74//5 70//5 69//5
f 72//6 70//6 74//6
f 78//5 80//5 79//5
f 80//2 84//2 83//2
f 84//3 82//3 81//3
f 82//4 78//4 77//4
f 80//6 78//6 82//6
f 86//5 88//5 87//5
f 88//2 92//2 91//2
f 92//3 90//3 89//3
f 90//4 86//4 85//4
f 88//6 86//6 90//6
f 94//2 96//2 95//2
f 96//3 100//3 99//3
f 100//4 98//4 97//4
f 98//5 94//5 93//5
f 96//6 94//6 98//6
f 102//2 104//2 103//2
f 104//3 108//3 107//3
f 108//4 106//4 105//4
f 106//5 102//5 101//5
f 104//6 102//6 106//6
f 110//5 112//5 111//5
f 112//2 116//2 115//2
f 116//3 114//3 113//3
f 114//4 110//4 109//4
f 112//6 110//6 114//6
f 118//2 120//2 119//2
f 120//3 124//3 123//3
f 124//4 122//4 121//4
f 122//5 118//5 117//5
f 120//6 118//6 122//6
f 88//5 126//5 125//5
f 126//2 128//2 127//2
f 128//3 92//3 91//3
f 92//4 88//4 87//4
f 126//6 88//6 92//6
f 130//2 132//2 131//2
f 132//3 136//3 135//3
f 136//4 134//4 133//4
f 134//5 130//5 129//5
f 132//6 130//6 134//6
f 138//5 140//5 139//5
f 140//2 144//2 143//2
f 144//3 142//3 141//3
f 142//4 138//4 137//4
f 140//6 138//6 142//6
f 146//2 148//2 147//2
f 148//3 152//3 151//3
f 152//4 150//4 149//4
f 150//5 146//5 145//5
f 148//6 146//6 150//6
f 154//5 156//5 155//5
f 156//2 160//2 159//2
f 160//3 158//3 157//3
f 158//4 154//4 153//4
f 156//6 154//6 158//6
f 162//2 164//2 163//2
f 164//3 168//3 167//3
f 168//4 166//4 165//4
f 166//5 162//5 161//5
f 164//6 162//6 166//6
f 170//2 172//2 171//2
f 172//3 176//3 175//3
f 176//4 174//4 173//4
f 174//5 170//5 169//5
f 172//6 170//6 174//6
f 178//5 180//5 179//5
f 180//2 184//2 183//2
f 184//3 182//3 181//3
f 182//4 178//4 177//4
f 180//6 178//6 182//6
f 186//5 188//5 187//5
f 188//2 192//2 191//2
f 192//3 190//3 189//3
f 190//4 186//4 185//4
f 188//6 186//6 190//6
